<svg width="19.000000" height="34.000000" viewBox="0 0 19 34" fill="none" xmlns="http://www.w3.org/2000/svg" xmlns:xlink="http://www.w3.org/1999/xlink">
	<desc>
			Created with Pixso.
	</desc>
	<defs/>
	<path id="Форма 1" d="M5.03 32.48L5.03 16.85L3.46 18.14L3.46 5.18L13.79 12.96L13.79 25.76L13.43 25.5L5.97 20.09L5.97 32.44C5.65 32.45 5.34 32.47 5.03 32.48Z" fill="#FB923C" fill-opacity="1.000000" fill-rule="evenodd"/>
	<path id="Форма 1" d="M-1 32.99L-1 22.68L4.15 18.79L4.15 32.53C2.37 32.64 0.63 32.8 -1 32.99Z" fill="#000000" fill-opacity="1.000000" fill-rule="evenodd"/>
	<path id="Форма 1" d="M5.97 5.83L5.97 0L12.41 4.53L12.41 11.01L5.97 5.83Z" fill="#000000" fill-opacity="1.000000" fill-rule="evenodd"/>
	<path id="Форма 1" d="M15.17 32.73L15.17 17.5L18.61 20.09L18.61 33.1C17.5 32.96 16.35 32.84 15.17 32.73Z" fill="#FB923C" fill-opacity="1.000000" fill-rule="evenodd"/>
	<path id="Форма 1" d="M8.28 32.4C7.82 32.4 7.36 32.41 6.9 32.42L6.9 22.03L12.41 25.92L12.41 32.53C11.04 32.45 9.66 32.4 8.28 32.4Z" fill="#000000" fill-opacity="1.000000" fill-rule="evenodd"/>
	<path id="Форма 1" d="M13.79 25.76L13.79 32.4L13.43 32.42L13.43 25.5L13.79 25.76Z" fill="#1D93E4" fill-opacity="1.000000" fill-rule="evenodd"/>
</svg>
