<svg width="130.000000" height="45.000000" viewBox="0 0 130 45" fill="none" xmlns="http://www.w3.org/2000/svg" xmlns:xlink="http://www.w3.org/1999/xlink">
	<desc>
			Created with Pixso.
	</desc>
	<defs/>
	<path id="Форма 1" d="M5.03 38.48L5.03 22.85L3.46 24.14L3.46 11.18L13.79 18.96L13.79 31.76L13 31.5L5.97 26.09L5.97 38.44C5.65 38.45 5.34 38.47 5.03 38.48Z" fill="#FB923C" fill-opacity="1.000000" fill-rule="evenodd"/>
	<path id="Форма 1" d="M-1 38.99L-1 28.68L4.15 24.79L4.15 38.53C2.37 38.64 0.63 38.8 -1 38.99Z" fill="#000000" fill-opacity="1.000000" fill-rule="evenodd"/>
	<path id="Форма 1" d="M5.97 11.83L5.97 6L12.41 10.53L12.41 17.01L5.97 11.83Z" fill="#000000" fill-opacity="1.000000" fill-rule="evenodd"/>
	<path id="Форма 1" d="M15.17 38.73L15.17 23.5L18.61 26.09L18.61 39.1C17.5 38.96 16.35 38.84 15.17 38.73Z" fill="#FB923C" fill-opacity="1.000000" fill-rule="evenodd"/>
	<path id="Форма 1" d="M8.28 38.4C7.82 38.4 7.36 38.41 6.9 38.42L6.9 28.03L12.41 31.92L12.41 38.53C11.04 38.45 9.66 38.4 8.28 38.4Z" fill="#000000" fill-opacity="1.000000" fill-rule="evenodd"/>
	<path id="Форма 1" d="M13.79 31.76L13.79 38.4L13 38.4L13 31.5L13.79 31.76Z" fill="#FB923C" fill-opacity="1.000000" fill-rule="evenodd"/>
	<path id="СТРОЙ" d="M88.92 2.94Q89.84 4.09 92.2 4.09Q94.14 4.09 95.1 3.32Q95.34 3.12 95.52 2.89Q96.07 2.17 96.08 1.04L93.86 1.04Q93.85 1.65 93.53 2.01Q93.48 2.07 93.42 2.12Q93 2.5 92.2 2.5Q91.31 2.5 90.89 2.05Q90.56 1.69 90.54 1.04L88.32 1.04Q88.34 2.22 88.92 2.94ZM30.6 18.57Q32.12 19.23 33.92 19.23Q35.75 19.23 37.23 18.59Q38.1 18.21 38.81 17.63Q39.3 17.23 39.71 16.73L37.63 14.82Q36.83 15.74 35.83 16.15Q35.04 16.48 34.11 16.48Q32.94 16.48 32 16.02Q31.89 15.96 31.79 15.9Q31.26 15.61 30.86 15.2Q30.47 14.81 30.19 14.32Q30.14 14.22 30.09 14.13Q29.62 13.18 29.62 11.99Q29.62 10.83 30.08 9.89Q30.13 9.78 30.19 9.67Q30.48 9.16 30.89 8.76Q31.28 8.37 31.79 8.09Q31.89 8.03 32 7.97Q32.94 7.52 34.11 7.52Q35.05 7.52 35.86 7.85Q36.85 8.26 37.63 9.16L39.71 7.24Q39.32 6.78 38.87 6.4Q38.14 5.79 37.23 5.4Q35.77 4.76 33.94 4.76Q32.06 4.76 30.5 5.47Q30.27 5.57 30.05 5.69Q29.07 6.22 28.33 6.97Q27.76 7.55 27.33 8.27Q27.11 8.63 26.94 9.02Q26.35 10.37 26.35 11.99Q26.35 13.6 26.93 14.95Q27.11 15.35 27.33 15.72Q27.76 16.43 28.32 17.01Q29.06 17.77 30.05 18.31Q30.32 18.45 30.6 18.57ZM72.07 18.51Q73.66 19.23 75.59 19.23Q77.53 19.23 79.13 18.49Q79.32 18.4 79.5 18.3Q80.55 17.73 81.33 16.91Q81.84 16.37 82.24 15.7Q82.52 15.25 82.72 14.76Q83.24 13.48 83.24 11.99Q83.24 10.52 82.73 9.26Q82.53 8.76 82.24 8.29Q81.84 7.62 81.31 7.07Q80.54 6.26 79.5 5.7Q79.3 5.59 79.1 5.5Q77.52 4.76 75.59 4.76Q73.68 4.76 72.1 5.48Q71.87 5.58 71.65 5.7Q70.59 6.27 69.81 7.1Q69.3 7.64 68.91 8.29Q68.65 8.73 68.46 9.2Q67.93 10.49 67.93 11.99Q67.93 13.52 68.47 14.82Q68.66 15.28 68.91 15.7Q69.3 16.35 69.8 16.88Q70.59 17.72 71.65 18.3Q71.86 18.41 72.07 18.51ZM47.9 7.63L52.39 7.63L52.39 5L40.24 5L40.24 7.63L44.71 7.63L44.71 19L47.9 19L47.9 7.63ZM63.71 5.62Q62.34 5 60.48 5L54.42 5L54.42 19L57.67 19L57.67 15.13L60.48 15.13Q62.34 15.13 63.71 14.53Q64.79 14.05 65.47 13.24Q65.66 13.02 65.82 12.77Q65.93 12.6 66.02 12.43Q66.56 11.4 66.56 10.07Q66.56 8.67 65.96 7.61Q65.89 7.49 65.82 7.38Q65.68 7.16 65.52 6.96Q64.82 6.12 63.71 5.62ZM88.97 5L85.74 5L85.74 19L88.8 19L95.48 9.89L95.48 19L98.68 19L98.68 5L95.65 5L88.97 14.12L88.97 5ZM77.33 16.15Q76.53 16.48 75.59 16.48Q74.63 16.48 73.81 16.13Q73.57 16.03 73.35 15.9Q72.88 15.64 72.51 15.28Q72.08 14.86 71.77 14.32Q71.72 14.22 71.67 14.13Q71.2 13.18 71.2 11.99Q71.2 10.83 71.66 9.89Q71.71 9.78 71.77 9.67Q72.09 9.1 72.55 8.68Q72.9 8.34 73.35 8.09Q73.57 7.96 73.81 7.86Q74.63 7.52 75.59 7.52Q76.53 7.52 77.33 7.84Q77.58 7.95 77.82 8.09Q78.27 8.34 78.63 8.68Q79.08 9.1 79.4 9.67Q79.46 9.78 79.51 9.89Q79.97 10.83 79.97 11.99Q79.97 13.18 79.5 14.13Q79.45 14.22 79.4 14.32Q79.09 14.86 78.66 15.28Q78.29 15.64 77.82 15.9Q77.58 16.04 77.33 16.15ZM62.52 11.87Q61.76 12.5 60.3 12.5L57.67 12.5L57.67 7.63L60.3 7.63Q61.76 7.63 62.52 8.27Q62.72 8.44 62.87 8.64Q63.28 9.21 63.28 10.07Q63.28 10.91 62.89 11.47Q62.74 11.69 62.52 11.87Z" fill="#000000" fill-opacity="1.000000" fill-rule="evenodd"/>
	<path id="МОНТАЖ" d="M47.16 38.96Q48.75 39.69 50.68 39.69Q52.62 39.69 54.22 38.94Q54.41 38.85 54.59 38.75Q55.64 38.19 56.42 37.37Q56.93 36.82 57.33 36.16Q57.61 35.7 57.81 35.21Q58.33 33.94 58.33 32.45Q58.33 30.98 57.82 29.72Q57.62 29.21 57.33 28.74Q56.93 28.07 56.4 27.52Q55.63 26.71 54.59 26.15Q54.39 26.05 54.19 25.95Q52.61 25.21 50.68 25.21Q48.77 25.21 47.19 25.93Q46.96 26.04 46.74 26.15Q45.68 26.72 44.9 27.55Q44.39 28.09 44 28.74Q43.74 29.18 43.55 29.65Q43.02 30.94 43.02 32.45Q43.02 33.97 43.56 35.27Q43.75 35.73 44 36.16Q44.39 36.8 44.89 37.34Q45.68 38.18 46.74 38.75Q46.95 38.86 47.16 38.96ZM37.45 31.07L37.47 39.45L40.51 39.45L40.5 25.45L37.81 25.45L32.65 34.15L27.41 25.45L24.73 25.45L24.73 39.45L27.78 39.45L27.78 31.23L31.9 37.97L33.34 37.97L37.45 31.07ZM73.68 39.45L73.68 25.45L70.43 25.45L70.43 30.97L64.08 30.97L64.08 25.45L60.83 25.45L60.83 39.45L64.08 39.45L64.08 33.71L70.43 33.71L70.43 39.45L73.68 39.45ZM83.39 28.09L87.88 28.09L87.88 25.45L75.73 25.45L75.73 28.09L80.2 28.09L80.2 39.45L83.39 39.45L83.39 28.09ZM92.2 36.45L98.7 36.45L99.94 39.45L106.73 39.45L109.87 33.81L111.95 33.81L111.95 39.45L115.14 39.45L115.14 33.81L117.17 33.81L120.31 39.45L124.05 39.45L119.87 32.13L123.8 25.45L120.38 25.45L117.21 31.11L115.14 31.11L115.14 25.45L111.95 25.45L111.95 31.11L109.82 31.11L106.68 25.45L103.25 25.45L107.19 32.13L103.19 39.12L97.07 25.45L93.88 25.45L87.64 39.45L90.96 39.45L92.2 36.45ZM52.42 36.6Q51.62 36.93 50.68 36.93Q49.72 36.93 48.9 36.59Q48.66 36.49 48.44 36.36Q47.97 36.1 47.6 35.74Q47.17 35.32 46.86 34.77Q46.81 34.68 46.76 34.58Q46.29 33.63 46.29 32.45Q46.29 31.28 46.75 30.35Q46.8 30.24 46.86 30.13Q47.18 29.56 47.64 29.13Q47.99 28.79 48.44 28.54Q48.66 28.41 48.9 28.31Q49.72 27.97 50.68 27.97Q51.62 27.97 52.42 28.3Q52.67 28.4 52.91 28.54Q53.36 28.79 53.72 29.13Q54.17 29.56 54.49 30.13Q54.55 30.24 54.6 30.35Q55.06 31.29 55.06 32.45Q55.06 33.63 54.59 34.58Q54.54 34.68 54.49 34.77Q54.18 35.32 53.75 35.74Q53.38 36.1 52.91 36.36Q52.67 36.5 52.42 36.6ZM95.46 28.63L97.68 33.99L93.24 33.99L95.46 28.63Z" fill="#FB923C" fill-opacity="1.000000" fill-rule="evenodd"/>
	<line id="Линия 1" x1="25.000000" y1="22.000000" x2="125.000000" y2="22.000000" stroke="#000000" stroke-opacity="1.000000" stroke-width="1.000000"/>
</svg>
